<svg xmlns="http://www.w3.org/2000/svg" viewBox="0 0 360 160" preserveAspectRatio="xMidYMid slice">
  <!-- Yakınımda kartının arkasındaki sade şehir haritası deseni -->
  <g fill="#D3DCEE">
    <rect x="-4" y="-4" width="70" height="44" rx="4"/><rect x="78" y="-4" width="56" height="44" rx="4"/>
    <rect x="-4" y="52" width="40" height="52" rx="4"/><rect x="48" y="52" width="86" height="24" rx="4"/>
    <rect x="48" y="86" width="40" height="40" rx="4"/><rect x="-4" y="116" width="40" height="50" rx="4"/>
    <rect x="48" y="138" width="86" height="28" rx="4"/><rect x="226" y="-4" width="44" height="34" rx="4"/>
    <rect x="282" y="-4" width="82" height="34" rx="4"/><rect x="226" y="42" width="44" height="46" rx="4"/>
    <rect x="300" y="100" width="64" height="66" rx="4"/><rect x="226" y="118" width="62" height="48" rx="4"/>
  </g>
  <rect x="100" y="86" width="34" height="40" rx="6" fill="#CFE5C0"/>
  <rect x="282" y="42" width="82" height="46" rx="6" fill="#CFE5C0"/>
  <path d="M146 -10C160 30 150 60 172 92S210 140 200 170" fill="none" stroke="#BFD7F2" stroke-width="16" stroke-linecap="round"/>
  <g fill="none" stroke="#fff" stroke-linecap="round">
    <path d="M-10 46H370M-10 132H370M42 -10V170M140 -10V170M220 -10V170M294 96H370" stroke-width="7"/>
    <path d="M-10 112L120 30L240 10L370 -6" stroke-width="5"/>
    <path d="M220 96H294V170" stroke-width="4"/>
  </g>
</svg>
